<svg width="77" height="24" viewBox="0 0 77 24" fill="none" xmlns="http://www.w3.org/2000/svg">
<path fill-rule="evenodd" clip-rule="evenodd" d="M20.455 4.73005C21 5.79961 21 7.19974 21 10V12.6988C21 12.9785 21 13.1183 20.9944 13.2364C20.8725 15.812 18.812 17.8725 16.2364 17.9944C16.1183 18 15.9623 18 15.6504 18L15.5703 18.0001C14.5501 18.0066 13.5562 18.3251 12.7222 18.9128L12.6692 18.9506L10.0585 20.8154C9.1635 21.4546 7.98743 20.5314 8.3959 19.5103C8.68525 18.7869 8.15251 18 7.37341 18H6.77166C4.68863 18 3 16.3114 3 14.2283V10C3 7.19974 3 5.79961 3.54497 4.73005C4.02433 3.78924 4.78924 3.02433 5.73005 2.54497C6.79961 2 8.19974 2 11 2H13C15.8003 2 17.2004 2 18.27 2.54497C19.2108 3.02433 19.9757 3.78924 20.455 4.73005ZM9.29426 9.7664C9.92735 9.13331 11.0054 9.38779 11.2885 10.2372C11.9242 12.1444 14.3448 12.7158 15.7664 11.2943L16.5303 10.5303C16.8232 10.2374 16.8232 9.76256 16.5303 9.46967C16.2374 9.17677 15.7626 9.17677 15.4697 9.46967L14.7057 10.2336C14.0726 10.8667 12.9946 10.6122 12.7115 9.76283C12.0758 7.85559 9.65517 7.28417 8.2336 8.70574L7.46967 9.46967C7.17678 9.76256 7.17678 10.2374 7.46967 10.5303C7.76256 10.8232 8.23744 10.8232 8.53033 10.5303L9.29426 9.7664Z" fill="#6468F6"/>
<path d="M31.79 6.74843V4.55486H43.315V6.74843H38.8503V19H36.2547V6.74843H31.79ZM48.5786 19.2116C47.5206 19.2116 46.6036 18.9788 45.8278 18.5133C45.0519 18.0478 44.45 17.3966 44.0221 16.5596C43.5989 15.7226 43.3873 14.7445 43.3873 13.6254C43.3873 12.5063 43.5989 11.5259 44.0221 10.6842C44.45 9.84248 45.0519 9.18887 45.8278 8.72335C46.6036 8.25784 47.5206 8.02508 48.5786 8.02508C49.6366 8.02508 50.5535 8.25784 51.3293 8.72335C52.1052 9.18887 52.7047 9.84248 53.1279 10.6842C53.5558 11.5259 53.7698 12.5063 53.7698 13.6254C53.7698 14.7445 53.5558 15.7226 53.1279 16.5596C52.7047 17.3966 52.1052 18.0478 51.3293 18.5133C50.5535 18.9788 49.6366 19.2116 48.5786 19.2116ZM48.5927 17.1661C49.1663 17.1661 49.646 17.0086 50.0315 16.6936C50.4171 16.3738 50.704 15.9459 50.892 15.4099C51.0848 14.8738 51.1812 14.2766 51.1812 13.6183C51.1812 12.9553 51.0848 12.3558 50.892 11.8197C50.704 11.279 50.4171 10.8487 50.0315 10.529C49.646 10.2092 49.1663 10.0494 48.5927 10.0494C48.0049 10.0494 47.5159 10.2092 47.1256 10.529C46.74 10.8487 46.4508 11.279 46.258 11.8197C46.0699 12.3558 45.9759 12.9553 45.9759 13.6183C45.9759 14.2766 46.0699 14.8738 46.258 15.4099C46.4508 15.9459 46.74 16.3738 47.1256 16.6936C47.5159 17.0086 48.0049 17.1661 48.5927 17.1661ZM58.4902 4.55486V19H55.9369V4.55486H58.4902ZM63.4434 15.6003L63.4363 12.518H63.8454L67.7388 8.16614H70.7224L65.9332 13.4984H65.4042L63.4434 15.6003ZM61.1158 19V4.55486H63.6691V19H61.1158ZM67.9152 19L64.3885 14.0697L66.1095 12.2712L70.9692 19H67.9152ZM72.424 19V8.16614H74.9773V19H72.424ZM73.7077 6.62853C73.3033 6.62853 72.9553 6.49451 72.6638 6.22649C72.3723 5.95376 72.2265 5.62696 72.2265 5.24608C72.2265 4.8605 72.3723 4.5337 72.6638 4.26567C72.9553 3.99295 73.3033 3.85658 73.7077 3.85658C74.1168 3.85658 74.4647 3.99295 74.7516 4.26567C75.0431 4.5337 75.1889 4.8605 75.1889 5.24608C75.1889 5.62696 75.0431 5.95376 74.7516 6.22649C74.4647 6.49451 74.1168 6.62853 73.7077 6.62853Z" fill="#101520"/>
</svg>
